<svg xmlns="http://www.w3.org/2000/svg" viewBox="0 0 46.205 46.205" fill="currentColor"><path d="M26.485 43.39c-2.407 0-4.629-.832-6.38-2.466-2.729-2.545-3.581-6.527-2.172-10.146 1.862-4.779 5.877-8.689 10.63-10.619-1.466-.635-3.747-.799-7.128.83-.452.218-1.107.615-1.801 1.036-3.514 2.133-10.827 6.57-16.615.377C.567 19.779-.462 16.181.193 12.531.917 8.5 3.522 5.094 7.339 3.185a3.501 3.501 0 0 1 3.131 6.261c-1.822.911-3.058 2.487-3.388 4.324-.153.855-.222 2.493 1.051 3.854 1.475 1.581 3.242 1.226 7.871-1.583.841-.51 1.636-.992 2.39-1.355 8.958-4.32 15.379-.856 18.156 3.423.184.281.355.582.519.899 3.444.501 6.417 2.261 8.472 5.099a3.501 3.501 0 0 1-5.67 4.107 5.742 5.742 0 0 0-.951-1.03c.075 2.323-.168 4.689-.762 6.775-1.11 3.899-3.315 6.726-6.378 8.17-1.791.843-3.59 1.261-5.295 1.261zm5.383-16.994c-3.273 1.093-6.169 3.732-7.411 6.924-.369.945-.207 1.897.423 2.485.82.765 2.283.76 3.912-.009 1.493-.704 2.256-2.432 2.633-3.756.517-1.817.604-3.849.443-5.644z"/></svg>
